<?xml version="1.0" encoding="utf-8"?>
<!-- Generator: Adobe Illustrator 24.1.2, SVG Export Plug-In . SVG Version: 6.00 Build 0)  -->
<svg version="1.1" id="Capa_1" xmlns="http://www.w3.org/2000/svg" xmlns:xlink="http://www.w3.org/1999/xlink" x="0px" y="0px"
	 viewBox="0 0 512 512" style="enable-background:new 0 0 512 512;" xml:space="preserve">
<style type="text/css">
	.st0{fill:#FFFFFF;}
</style>
<g>
	<g>
		<path class="st0" d="M437,75C388.7,26.6,324.4,0,256,0S123.3,26.6,75,75C26.6,123.3,0,187.6,0,256s26.6,132.7,75,181
			c48.4,48.4,112.6,75,181,75s132.7-26.6,181-75c48.4-48.4,75-112.6,75-181S485.4,123.3,437,75z M256,481.2
			c-124.2,0-225.2-101-225.2-225.2S131.8,30.8,256,30.8s225.2,101,225.2,225.2S380.2,481.2,256,481.2z"/>
	</g>
</g>
<g>
	<g>
		<path class="st0" d="M396.9,240.6H115.1c-8.5,0-15.4,6.9-15.4,15.4c0,8.5,6.9,15.4,15.4,15.4h281.7c8.5,0,15.4-6.9,15.4-15.4
			C412.3,247.5,405.4,240.6,396.9,240.6z"/>
	</g>
</g>
<g>
	<g>
		<path class="st0" d="M376.3,155.8H135.7c-8.5,0-15.4,6.9-15.4,15.4c0,8.5,6.9,15.4,15.4,15.4h240.6c8.5,0,15.4-6.9,15.4-15.4
			C391.7,162.7,384.8,155.8,376.3,155.8z"/>
	</g>
</g>
<g>
	<g>
		<path class="st0" d="M376.3,325.4H135.7c-8.5,0-15.4,6.9-15.4,15.4c0,8.5,6.9,15.4,15.4,15.4h240.6c8.5,0,15.4-6.9,15.4-15.4
			C391.7,332.3,384.8,325.4,376.3,325.4z"/>
	</g>
</g>
</svg>
