<svg id="Capa_1" data-name="Capa 1" xmlns="http://www.w3.org/2000/svg" viewBox="0 0 595.28 595.28"><defs><style>.cls-1{fill:#486147;}.cls-2{fill:none;}</style></defs><path class="cls-1" d="M467,340.29c-10,0-20.05-.05-30.08,0-7,.06-14,.4-20.94.43q-20.46.12-40.92,0c-10.13-.06-20.27-.46-30.4-.43-23.86.06-47.73.33-71.59.44-17.51.07-35,0-52.53,0H131.82c-14.73,0-29.46.08-44.18,0-4.68,0-9.31-.74-13.52-3.11a13.83,13.83,0,0,1-7.6-11.27c-.71-6.48.7-12.36,2.47-18.56,2.88-10.13,7.4-19.41,12.5-28.42a94.25,94.25,0,0,1,15.69-21.12c4.1-4,7.87-8.41,12.26-12.05a179.73,179.73,0,0,1,17.1-12.44,107.46,107.46,0,0,1,15.9-8.67c10.68-4.54,21.41-9.1,32.47-12.56a272.44,272.44,0,0,1,32.58-7.7c11-2,22.11-3.28,33.22-4.4,9.13-.92,18.33-1.3,27.51-1.61,9.84-.35,19.71-.65,29.55-.39,11,.29,22,1.13,33,2,7,.52,13.87,1.38,20.79,2.2a245.76,245.76,0,0,1,42.15,8.75,254.23,254.23,0,0,1,29.1,10.62c11.54,5.07,22.94,10.65,32.73,18.79,7,5.86,14.25,11.68,20.49,18.35a103,103,0,0,1,19,28.34c2.95,6.59,5.95,13.18,8.41,20,2.25,6.22,3.87,12.75,2.47,19.45-1.55,7.45-6.21,11.65-15.5,13.29-3.86.69-7.88.53-11.83.62s-7.74,0-11.62,0ZM174.7,232.49l-.66-.68c-2.21.73-4.49,1.28-6.61,2.22-5.09,2.25-10.25,4.43-15.12,7.11a148.43,148.43,0,0,0-17,10.52,106.59,106.59,0,0,0-16.18,15.49c-7.83,8.94-12.26,19.27-15.84,30.2-1.36,4.13,1,8.36,4.7,9.23,2.76.66,5.82-2.27,6.67-6.29a38.75,38.75,0,0,1,1.11-4c5.53-16.72,15.6-30.4,28.5-42.1a151.09,151.09,0,0,1,28.6-20.77C173.45,233.13,174.08,232.82,174.7,232.49Zm146,78.21c-.27,2.24,2.31,5.17,4.88,5.54s5.81-2,6.21-4.76c.34-2.36-2.56-5.7-5.15-5.92S321,308.06,320.72,310.7Zm80.38-44.79c-.25,2.48,2.61,5.6,5.28,5.77,2.36.14,5.15-2.36,5.49-4.91s-2-5.56-4.92-6C404.38,260.45,401.39,263.06,401.1,265.91ZM290.74,242.85a5.74,5.74,0,0,0-5.43,5.21,5.54,5.54,0,0,0,5.17,5.38,5.4,5.4,0,0,0,5.41-5.13A5.75,5.75,0,0,0,290.74,242.85Zm-92.2,50c0-2.42-3.06-5.5-5.39-5.45a5.92,5.92,0,0,0-5.2,5.49c0,2.82,2.78,5.65,5.43,5.55C195.84,298.35,198.56,295.41,198.54,292.86Z" transform="translate(0.14)"/><path class="cls-1" d="M145.69,473.22c18.25,0,36.51-.05,54.76,0,12.71,0,25.42.33,38.13.37,6.44,0,12.88-.39,19.32-.38q114.63.15,229.26.35c4.93,0,9.86-.24,14.79-.38,3.26-.1,4.61,1,3.68,4a168.1,168.1,0,0,1-6,15.88c-4.79,11.45-11.75,21.61-19.52,31.16A131.14,131.14,0,0,1,458.5,545,162.89,162.89,0,0,1,429,563.47c-11.51,5.5-23.34,10.34-35.8,13.33-10.42,2.5-20.84,5.06-31.35,7.08-6.82,1.31-13.85,1.51-20.73,2.55-11.86,1.79-23.79,2.16-35.74,2.22-8.92,0-17.83,0-26.75,0-3.5,0-7-.11-10.5-.07a246.09,246.09,0,0,1-39.58-2.6c-11.5-1.74-23.09-3.07-34.47-5.41a242.54,242.54,0,0,1-26.71-7.65,191.19,191.19,0,0,1-21.26-8.33c-10.54-4.95-20.84-10.46-29.84-18-5.83-4.88-11.73-9.74-17-15.16-4.71-4.8-8.73-10.3-12.94-15.59C78,505.45,72.89,493.38,68,481.23a24.71,24.71,0,0,1-1.38-4.43c-.59-2.91.1-3.65,3-3.64l34,0h42Zm79,41.21a5.54,5.54,0,0,0,5.25,5.84c3.81,0,7.11-2.53,7.2-5.54a6.28,6.28,0,0,0-6.13-6.46A6,6,0,0,0,224.72,514.43Zm195.42-8.1a6.28,6.28,0,0,0,6.06-5.94c.05-2.95-3-6.2-5.9-6.26a6.68,6.68,0,0,0-6.31,6.42A6.18,6.18,0,0,0,420.14,506.33Zm-88.37,48.45a6.13,6.13,0,0,0-5.71-6.25,6.19,6.19,0,0,0-6,6,5.9,5.9,0,0,0,5.77,6.1A5.67,5.67,0,0,0,331.77,554.78Zm-187.6-32.09a5.85,5.85,0,0,0-5.71-6.07,6,6,0,0,0-6,5.77,5.93,5.93,0,0,0,6,6.09A5.8,5.8,0,0,0,144.17,522.69Z" transform="translate(0.14)"/><path class="cls-1" d="M172.55,193.37c-3.23,2.91-6.37,2.58-9.63,1.3-4.91-1.94-9.75-3.77-13.42-8a24.18,24.18,0,0,1-5.63-12c-1.39-8.27,0-16.37,2.82-24.15,4.53-12.54,11.78-23.53,19.87-34.05,7.54-9.81,15.07-19.69,20.07-31.14,2.3-5.29,4.83-10.58,4.13-16.67-.61-5.3-3.31-9.21-7.53-12.26a53.09,53.09,0,0,1-6.59-5.07c-1.4-1.4-.8-2.61,1.42-2.76,9.65-.67,20.72,6.68,23.74,15.62,2.62,7.72,2.32,15.38.45,23.08-3.67,15.16-12.12,27.74-21.48,39.91-5.36,7-10,14.48-15,21.72a69.32,69.32,0,0,0-8.57,18.42c-2.83,8.78.45,17.09,8.57,21.59,1.44.8,2.93,1.54,4.32,2.43A21.65,21.65,0,0,1,172.55,193.37Z" transform="translate(0.14)"/><path class="cls-1" d="M286.7,157.21a20.24,20.24,0,0,1-4.49.41c-6.12-.73-11.9-2.54-16.39-7s-6.68-10.45-7.62-16.68c-1.17-7.77.53-15.28,3.3-22.43,5.36-13.85,13.73-25.85,22.83-37.56,7.64-9.82,14.94-20.13,19-32.13,2.06-6.08,3.22-12.28-.66-18.3a18.61,18.61,0,0,0-8.62-7.4c-2.42-1-3.65-2.79-4.45-5.42A24.78,24.78,0,0,1,309.74,17c8.14,7.07,9.19,16.44,8,26.23C316.19,56,310.69,67.27,303.39,77.7c-6.47,9.25-13.53,18.12-19.75,27.54A121.63,121.63,0,0,0,273,125.1c-2.51,6-3.82,12.45-.09,18.86,1.92,3.29,4.71,5.22,7.74,7.16a73.89,73.89,0,0,1,6.53,5.25Z" transform="translate(0.14)"/><path class="cls-1" d="M404.68,194.18c-3.06.39-5.5,1.23-7.77.9-9.74-1.41-17.37-6.24-20.79-15.74-3.15-8.8-2.05-17.78.73-26.59a96.3,96.3,0,0,1,13.15-26c5.12-7.36,10.67-14.42,15.81-21.77,6.27-9,12.09-18.17,15.16-28.86,2.66-9.29-1.61-18.28-10.93-22.2a5.49,5.49,0,0,1-2.38-2.79c-.66-1.5-.29-2.68,1.8-2.64a25,25,0,0,1,16.4,6.17C434.73,62.35,436,72.52,433.79,83c-3.28,15.54-10.6,29.31-20.27,42-6.66,8.72-12.56,18-18.6,27.21-4,6.11-7,12.72-7.69,20.14-.69,7.72,4,14,10.47,17.25A73,73,0,0,1,404.68,194.18Z" transform="translate(0.14)"/><path class="cls-1" d="M372.24,368c.95,10.14,1.88,19.85,2.76,29.56,1,11.37,2,22.76,3.12,34.13.27,2.65-.68,3.09-3,3-5.44-.13-5.52,0-5.82-5.6-.61-11.21-1.12-22.44-1.68-33.66a5.59,5.59,0,0,0-.67-2.7q-1.51,7.94-3,15.88c-1.47,7.69-3,15.35-4.34,23.07-.45,2.65-1.76,3-4.11,3-2.55.06-3-1.18-3.39-3.22-2.17-11.11-4.47-22.2-6.7-33.3-.26-1.34-.4-2.7-.6-4.05l-.69-.07c-.2,2.05-.47,4.1-.58,6.16-.59,10.58-1.18,21.15-1.68,31.73-.09,2-.68,2.88-2.78,2.69-1.82-.15-3.66,0-5.7,0a15,15,0,0,1-.2-2.26q2.28-27.54,4.6-55.08c.2-2.48.23-5,.65-7.43a2.85,2.85,0,0,1,2-1.82c5.87-.51,6-.47,7.19,5.5,2.51,12.26,4.9,24.55,7.36,36.82a3.71,3.71,0,0,0,1.12,2c.77-4.66,1.45-9.34,2.34-14,1.8-9.5,3.75-19,5.55-28.47.27-1.43.7-2.12,2.26-2C368.09,368.11,370,368,372.24,368Z" transform="translate(0.14)"/><path class="cls-1" d="M83.67,368.22v8.91c0,4.6.14,9.22,0,13.82-.11,2.52.81,3.23,3.19,3a49.65,49.65,0,0,1,6.9,0c2.15.14,2.92-.59,2.88-2.81-.12-6.54,0-13.09,0-19.63v-3.27h9v66.4a75.79,75.79,0,0,1-7.72-.12c-.5-.05-1.2-1.62-1.21-2.49-.08-9-.15-18.06,0-27.09.05-2.72-.82-3.57-3.43-3.34a44.28,44.28,0,0,1-6.91,0c-2.14-.15-2.64.73-2.62,2.73.08,9.12,0,18.24.08,27.36,0,2.23-.54,3.07-2.92,3-6.38-.1-6.38,0-6.38-6.4V368.22Z" transform="translate(0.14)"/><path class="cls-1" d="M509.11,402c-.93,7.19-1.3,14.51-2.93,21.54-2.27,9.81-10.55,14.11-20.22,11.21-6.34-1.89-9.17-7-10.32-12.91a104.42,104.42,0,0,1-.09-41.71c2.29-10.82,9.73-14.88,21.05-12.15,4.14,1,6.75,4,8.38,7.8,2.91,6.85,3.09,14.16,3.42,21.43.08,1.56,0,3.13,0,4.7Zm-9.75-.23-.6-.05a83.66,83.66,0,0,0-.06-8.82A118.5,118.5,0,0,0,496.5,379c-.55-2.4-2.69-3.57-5.3-3.6a5.72,5.72,0,0,0-5.59,3.31,9,9,0,0,0-1.1,3.38c-.44,9.17-.91,18.35-1.05,27.52a63.13,63.13,0,0,0,1.11,10.68c.61,3.94,3.19,6.56,6.26,6.75s5.94-1.94,6.59-6.2C498.39,414.54,498.75,408.11,499.36,401.72Z" transform="translate(0.14)"/><path class="cls-1" d="M205.29,368.35a5.76,5.76,0,0,1,.56-.23c8.31-.7,8.31-.7,8.31,7.6q0,20.32,0,40.66c0,1.47.07,2.95.21,4.41.48,5.06,4.4,7.59,9,5.46,1.38-.64,2.38-2.63,3-4.21.53-1.4.32-3.1.32-4.66q0-23,0-45.92v-3.21h8.91c0,1,.12,2,.12,3q0,23.23,0,46.47a36.69,36.69,0,0,1-.57,6.87c-1.34,6.77-4.14,9.54-11,10.45a28.86,28.86,0,0,1-9-.26,10.58,10.58,0,0,1-9-8.95,49.74,49.74,0,0,1-.94-8.77c-.09-15.58-.05-31.16,0-46.74C205.14,369.66,205.23,369,205.29,368.35Z" transform="translate(0.14)"/><path class="cls-1" d="M538.9,343.22c-2.28.77-4.51.84-5.47,2-1.67,2-.38,4.12,1.25,5.87a45.59,45.59,0,0,1,4,4.57c3.35,4.72,1.05,11.28-4.12,12-3.25.44-4.72-1-4.24-4.11a2.54,2.54,0,0,1,.78,0c1.7.57,3.49,1.2,4.78-.58s.9-3.93-.4-5.66a47.7,47.7,0,0,0-3.74-4.06,8.37,8.37,0,0,1-2.23-8.39,5.74,5.74,0,0,1,6.42-4.45C538.4,340.57,539.45,341.66,538.9,343.22Z" transform="translate(0.14)"/><path class="cls-1" d="M552.3,343.92l-4-.33c-.08-.82-.15-1.6-.25-2.63H559.3c.4,1.45.87,2.93-1.62,2.76-1.8-.13-2.14.74-2.12,2.31.05,6.07,0,12.14,0,18.21v2.88l-3.28.2Z" transform="translate(0.14)"/><rect class="cls-2" width="595.28" height="595.28"/></svg>